<mxfile host="app.diagrams.net" agent="Mozilla/5.0 (Windows NT 10.0; Win64; x64) AppleWebKit/537.36 (KHTML, like Gecko) Chrome/137.0.0.0 Safari/537.36" version="27.1.5">
  <diagram name="Page-1" id="7BFxU5fGPZ_QuVZOJ2mt">
    <mxGraphModel grid="1" page="1" gridSize="10" guides="1" tooltips="1" connect="1" arrows="1" fold="1" pageScale="1" pageWidth="850" pageHeight="1100" math="0" shadow="0">
      <root>
        <mxCell id="0" />
        <mxCell id="1" parent="0" />
        <mxCell id="Zu2pmkmOJ84C_yeY3-3D-30" style="edgeStyle=orthogonalEdgeStyle;rounded=0;orthogonalLoop=1;jettySize=auto;html=1;entryX=0.25;entryY=0;entryDx=0;entryDy=0;" edge="1" parent="1" source="Zu2pmkmOJ84C_yeY3-3D-3" target="Zu2pmkmOJ84C_yeY3-3D-10">
          <mxGeometry relative="1" as="geometry" />
        </mxCell>
        <mxCell id="Zu2pmkmOJ84C_yeY3-3D-32" style="edgeStyle=orthogonalEdgeStyle;rounded=0;orthogonalLoop=1;jettySize=auto;html=1;entryX=0.5;entryY=0;entryDx=0;entryDy=0;" edge="1" parent="1" source="Zu2pmkmOJ84C_yeY3-3D-3" target="Zu2pmkmOJ84C_yeY3-3D-9">
          <mxGeometry relative="1" as="geometry" />
        </mxCell>
        <mxCell id="Zu2pmkmOJ84C_yeY3-3D-3" value="&lt;b&gt;&lt;u&gt;Dim_Location&lt;/u&gt;&lt;/b&gt;&lt;div&gt;&lt;br&gt;&lt;/div&gt;&lt;div&gt;Dim_LocationKey&lt;/div&gt;&lt;div&gt;LocationKey&lt;/div&gt;&lt;div&gt;Dim_SchoolKey&lt;/div&gt;&lt;div&gt;Dim_TransportKey&lt;/div&gt;&lt;div&gt;StateCode&lt;/div&gt;&lt;div&gt;Suburb&lt;/div&gt;&lt;div&gt;PostCode&lt;/div&gt;&lt;div&gt;City&lt;/div&gt;&lt;div&gt;State&lt;/div&gt;&lt;div&gt;Latitude&lt;/div&gt;&lt;div&gt;Longitude&lt;/div&gt;&lt;div&gt;&lt;br&gt;&lt;/div&gt;&lt;div&gt;&lt;br&gt;&lt;/div&gt;" style="rounded=0;whiteSpace=wrap;html=1;" vertex="1" parent="1">
          <mxGeometry x="-50" y="80" width="120" height="230" as="geometry" />
        </mxCell>
        <mxCell id="Zu2pmkmOJ84C_yeY3-3D-4" value="&lt;div&gt;&lt;b&gt;&lt;u&gt;Dim_Crime&lt;/u&gt;&lt;/b&gt;&lt;/div&gt;&lt;div&gt;&lt;b&gt;&lt;u&gt;&lt;br&gt;&lt;/u&gt;&lt;/b&gt;&lt;/div&gt;&lt;div&gt;Dim_OffenceKey&lt;/div&gt;&lt;div&gt;BusinessKEy&lt;/div&gt;&lt;div&gt;Offence Category&lt;/div&gt;&lt;div&gt;Offence Subcategory&lt;/div&gt;&lt;div&gt;&lt;br&gt;&lt;/div&gt;&lt;div&gt;&lt;br&gt;&lt;/div&gt;" style="rounded=0;whiteSpace=wrap;html=1;" vertex="1" parent="1">
          <mxGeometry x="-300" y="630" width="120" height="170" as="geometry" />
        </mxCell>
        <mxCell id="Zu2pmkmOJ84C_yeY3-3D-6" value="&lt;b&gt;&lt;u&gt;DimRental&lt;/u&gt;&lt;/b&gt;&lt;div&gt;&lt;br&gt;&lt;/div&gt;&lt;div&gt;Dim_RentalKey&lt;/div&gt;&lt;div&gt;BusinessKey&lt;/div&gt;&lt;div&gt;RentalHouseType&lt;/div&gt;&lt;div&gt;&lt;br&gt;&lt;/div&gt;" style="rounded=0;whiteSpace=wrap;html=1;" vertex="1" parent="1">
          <mxGeometry x="330" y="630" width="120" height="170" as="geometry" />
        </mxCell>
        <mxCell id="Zu2pmkmOJ84C_yeY3-3D-35" style="edgeStyle=orthogonalEdgeStyle;rounded=0;orthogonalLoop=1;jettySize=auto;html=1;entryX=0.75;entryY=0;entryDx=0;entryDy=0;" edge="1" parent="1" source="Zu2pmkmOJ84C_yeY3-3D-7" target="Zu2pmkmOJ84C_yeY3-3D-3">
          <mxGeometry relative="1" as="geometry" />
        </mxCell>
        <mxCell id="Zu2pmkmOJ84C_yeY3-3D-7" value="&lt;b&gt;&lt;u&gt;DimSchool&lt;/u&gt;&lt;/b&gt;&lt;div&gt;&lt;br&gt;&lt;/div&gt;&lt;div&gt;Dim_SchoolKey&lt;/div&gt;&lt;div&gt;SchoolKey&lt;/div&gt;&lt;div&gt;SchoolCode&lt;/div&gt;&lt;div&gt;SchoolType&lt;/div&gt;&lt;div&gt;SchoolName&lt;/div&gt;&lt;div&gt;SchoolAddress&lt;/div&gt;&lt;div&gt;&lt;br&gt;&lt;/div&gt;" style="rounded=0;whiteSpace=wrap;html=1;" vertex="1" parent="1">
          <mxGeometry x="160" y="-140" width="120" height="170" as="geometry" />
        </mxCell>
        <mxCell id="Zu2pmkmOJ84C_yeY3-3D-8" value="&lt;b&gt;&lt;u&gt;DimTransport&lt;/u&gt;&lt;/b&gt;&lt;div&gt;&lt;br&gt;&lt;/div&gt;&lt;div&gt;Dim_TransportKey&lt;/div&gt;&lt;div&gt;BusinessKey&lt;/div&gt;&lt;div&gt;StopName&lt;/div&gt;&lt;div&gt;Mode&lt;/div&gt;&lt;div&gt;&lt;br&gt;&lt;/div&gt;" style="rounded=0;whiteSpace=wrap;html=1;" vertex="1" parent="1">
          <mxGeometry x="-300" y="-140" width="120" height="170" as="geometry" />
        </mxCell>
        <mxCell id="Zu2pmkmOJ84C_yeY3-3D-9" value="&lt;b&gt;&lt;u&gt;Fact_RentalAmount&lt;/u&gt;&lt;/b&gt;&lt;div&gt;&lt;br&gt;&lt;/div&gt;&lt;div&gt;Fact_RentalKey&lt;/div&gt;&lt;div&gt;RentalAMount&lt;/div&gt;&lt;div&gt;&lt;br&gt;&lt;/div&gt;&lt;div&gt;Fks&lt;/div&gt;" style="rounded=0;whiteSpace=wrap;html=1;" vertex="1" parent="1">
          <mxGeometry x="570" y="350" width="120" height="120" as="geometry" />
        </mxCell>
        <mxCell id="Zu2pmkmOJ84C_yeY3-3D-10" value="&lt;b&gt;&lt;u&gt;Fact_HouseValue&lt;/u&gt;&lt;/b&gt;&lt;div&gt;&lt;br&gt;&lt;/div&gt;&lt;div&gt;Fact_HouseValueKey&lt;/div&gt;&lt;div&gt;HouseValueKey&lt;br&gt;&lt;div&gt;DimLocationKey&lt;/div&gt;&lt;div&gt;HouseValue&lt;/div&gt;&lt;/div&gt;" style="rounded=0;whiteSpace=wrap;html=1;" vertex="1" parent="1">
          <mxGeometry x="-485" y="410" width="120" height="120" as="geometry" />
        </mxCell>
        <mxCell id="Zu2pmkmOJ84C_yeY3-3D-11" value="&lt;b&gt;&lt;u&gt;Fact_Incidents&lt;/u&gt;&lt;/b&gt;&lt;div&gt;&lt;br&gt;&lt;/div&gt;&lt;div&gt;Fact_IncidentsKey&lt;/div&gt;&lt;div&gt;FKs&lt;/div&gt;&lt;div&gt;Recorded Incidents&lt;br&gt;&lt;div&gt;&lt;br&gt;&lt;/div&gt;&lt;div&gt;&lt;br&gt;&lt;/div&gt;&lt;/div&gt;" style="rounded=0;whiteSpace=wrap;html=1;" vertex="1" parent="1">
          <mxGeometry x="-30" y="440" width="120" height="120" as="geometry" />
        </mxCell>
        <UserObject label="&#xa;&lt;table data-sheets-named-table=&quot;{&amp;quot;1&amp;quot;:{&amp;quot;1&amp;quot;:{&amp;quot;1&amp;quot;:{&amp;quot;4&amp;quot;:{&amp;quot;1&amp;quot;:2,&amp;quot;2&amp;quot;:16777215}},&amp;quot;2&amp;quot;:{&amp;quot;4&amp;quot;:{&amp;quot;1&amp;quot;:2,&amp;quot;2&amp;quot;:16777215}},&amp;quot;3&amp;quot;:1,&amp;quot;4&amp;quot;:{&amp;quot;4&amp;quot;:{&amp;quot;1&amp;quot;:2,&amp;quot;2&amp;quot;:16185593}},&amp;quot;5&amp;quot;:1}},&amp;quot;2&amp;quot;:&amp;quot;Table1&amp;quot;,&amp;quot;3&amp;quot;:[{&amp;quot;1&amp;quot;:0,&amp;quot;2&amp;quot;:1,&amp;quot;3&amp;quot;:{&amp;quot;2&amp;quot;:2},&amp;quot;4&amp;quot;:7}],&amp;quot;5&amp;quot;:{&amp;quot;1&amp;quot;:62,&amp;quot;3&amp;quot;:1,&amp;quot;4&amp;quot;:1,&amp;quot;5&amp;quot;:1,&amp;quot;6&amp;quot;:1,&amp;quot;7&amp;quot;:1}}&quot; data-sheets-named-table-range=&quot;G9:M28&quot; data-sheets-original-selection=&quot;G8:M13&quot; data-sheets-baot=&quot;1&quot; data-sheets-root=&quot;1&quot; style=&quot;table-layout:fixed;font-size:11pt;font-family:Calibri;width:0px;border-collapse:collapse;border:none&quot; border=&quot;1&quot; dir=&quot;ltr&quot; cellpadding=&quot;0&quot; cellspacing=&quot;0&quot; xmlns=&quot;http://www.w3.org/1999/xhtml&quot;&gt;&lt;colgroup&gt;&lt;col width=&quot;169&quot;&gt;&lt;col width=&quot;464&quot;&gt;&lt;col width=&quot;119&quot;&gt;&lt;col width=&quot;198&quot;&gt;&lt;col width=&quot;121&quot;&gt;&lt;col width=&quot;119&quot;&gt;&lt;col width=&quot;159&quot;&gt;&lt;/colgroup&gt;&lt;tbody&gt;&lt;tr style=&quot;height:20px;&quot;&gt;&lt;td style=&quot;border-bottom:1px solid #bfbfbf;overflow:hidden;padding:0px 3px 0px 3px;vertical-align:bottom;&quot;&gt;&lt;/td&gt;&lt;td style=&quot;border-bottom:1px solid #bfbfbf;overflow:hidden;padding:0px 3px 0px 3px;vertical-align:bottom;font-family:Arial;font-size:12pt;font-weight:bold;&quot;&gt;Descriptive Info&lt;/td&gt;&lt;td style=&quot;border-bottom:1px solid #bfbfbf;overflow:hidden;padding:0px 3px 0px 3px;vertical-align:bottom;&quot;&gt;&lt;/td&gt;&lt;td style=&quot;border-bottom:1px solid #bfbfbf;overflow:hidden;padding:0px 3px 0px 3px;vertical-align:bottom;&quot;&gt;&lt;/td&gt;&lt;td style=&quot;border-bottom:1px solid #bfbfbf;overflow:hidden;padding:0px 3px 0px 3px;vertical-align:bottom;&quot;&gt;&lt;/td&gt;&lt;td style=&quot;border-bottom:1px solid #bfbfbf;overflow:hidden;padding:0px 3px 0px 3px;vertical-align:bottom;&quot;&gt;&lt;/td&gt;&lt;td style=&quot;border-bottom:1px solid #bfbfbf;overflow:hidden;padding:0px 3px 0px 3px;vertical-align:bottom;&quot;&gt;&lt;/td&gt;&lt;/tr&gt;&lt;tr style=&quot;height:20px;&quot;&gt;&lt;td style=&quot;border-right:1px solid #bfbfbf;border-bottom:1px solid #bfbfbf;border-left:1px solid #bfbfbf;overflow:hidden;padding:0px 3px 0px 3px;vertical-align:middle;background-color:#ffffff;font-family:Roboto;font-weight:normal;wrap-strategy:3;white-space:clip;color:#ffffff;&quot;&gt;Column 1&lt;/td&gt;&lt;td style=&quot;border-right:1px solid #bfbfbf;border-bottom:1px solid #bfbfbf;overflow:hidden;padding:0px 3px 0px 3px;vertical-align:middle;background-color:#ffffff;font-family:Roboto;font-size:12pt;font-weight:bold;wrap-strategy:3;white-space:clip;color:#ffffff;&quot;&gt;De&lt;/td&gt;&lt;td style=&quot;border-right:1px solid #bfbfbf;border-bottom:1px solid #bfbfbf;overflow:hidden;padding:0px 3px 0px 3px;vertical-align:middle;background-color:#ffffff;font-family:Roboto;font-weight:normal;wrap-strategy:3;white-space:clip;color:#ffffff;&quot;&gt;Column 3&lt;/td&gt;&lt;td style=&quot;border-right:1px solid #bfbfbf;border-bottom:1px solid #bfbfbf;overflow:hidden;padding:0px 3px 0px 3px;vertical-align:middle;background-color:#ffffff;font-family:Roboto;font-weight:normal;wrap-strategy:3;white-space:clip;color:#ffffff;&quot;&gt;Column 4&lt;/td&gt;&lt;td style=&quot;border-right:1px solid #bfbfbf;border-bottom:1px solid #bfbfbf;overflow:hidden;padding:0px 3px 0px 3px;vertical-align:middle;background-color:#ffffff;font-family:Roboto;font-weight:normal;wrap-strategy:3;white-space:clip;color:#ffffff;&quot;&gt;Column 5&lt;/td&gt;&lt;td style=&quot;border-right:1px solid #bfbfbf;border-bottom:1px solid #bfbfbf;overflow:hidden;padding:0px 3px 0px 3px;vertical-align:middle;background-color:#ffffff;font-family:Roboto;font-weight:normal;wrap-strategy:3;white-space:clip;color:#ffffff;&quot;&gt;Column 6&lt;/td&gt;&lt;td style=&quot;border-right:1px solid #bfbfbf;border-bottom:1px solid #bfbfbf;overflow:hidden;padding:0px 3px 0px 3px;vertical-align:middle;background-color:#ffffff;font-family:Roboto;font-weight:normal;wrap-strategy:3;white-space:clip;color:#ffffff;&quot;&gt;Column 7&lt;/td&gt;&lt;/tr&gt;&lt;tr style=&quot;height:20px;&quot;&gt;&lt;td style=&quot;border-right:1px solid #d9d9d9;border-bottom:1px solid #d9d9d9;border-left:1px solid #bfbfbf;overflow:hidden;padding:0px 3px 0px 3px;vertical-align:middle;background-color:#ffffff;font-family:Arial;font-size:12pt;font-weight:bold;wrap-strategy:3;white-space:clip;color:#434343;&quot;&gt;Subject area/Entity&lt;/td&gt;&lt;td style=&quot;border-right:1px solid #d9d9d9;border-bottom:1px solid #d9d9d9;overflow:hidden;padding:0px 3px 0px 3px;vertical-align:middle;background-color:#ffffff;font-family:Roboto;font-size:9pt;font-weight:bold;wrap-strategy:3;white-space:clip;color:#434343;&quot;&gt;Location (suburb, crime, transport, HouseValue, RentalAmount, School lists) &lt;/td&gt;&lt;td style=&quot;border-right:1px solid #d9d9d9;border-bottom:1px solid #d9d9d9;overflow:hidden;padding:0px 3px 0px 3px;vertical-align:middle;background-color:#ffffff;font-family:Roboto;font-size:9pt;font-weight:bold;wrap-strategy:3;white-space:clip;color:#434343;&quot;&gt;Offence (Crime List) &lt;/td&gt;&lt;td style=&quot;border-right:1px solid #d9d9d9;border-bottom:1px solid #d9d9d9;overflow:hidden;padding:0px 3px 0px 3px;vertical-align:middle;background-color:#ffffff;font-family:Roboto;font-size:9pt;font-weight:bold;wrap-strategy:3;white-space:clip;color:#434343;&quot;&gt;Lat/Longitude (Suburb, Transport) &lt;/td&gt;&lt;td style=&quot;border-right:1px solid #d9d9d9;border-bottom:1px solid #d9d9d9;overflow:hidden;padding:0px 3px 0px 3px;vertical-align:middle;background-color:#ffffff;font-family:Roboto;font-size:9pt;font-weight:bold;wrap-strategy:3;white-space:clip;color:#434343;&quot;&gt;Rental Type (Rental) &lt;/td&gt;&lt;td style=&quot;border-right:1px solid #d9d9d9;border-bottom:1px solid #d9d9d9;overflow:hidden;padding:0px 3px 0px 3px;vertical-align:middle;background-color:#ffffff;font-family:Roboto;font-size:9pt;font-weight:bold;wrap-strategy:3;white-space:clip;color:#434343;&quot;&gt;School info(School)&lt;/td&gt;&lt;td style=&quot;border-right:1px solid #bfbfbf;border-bottom:1px solid #d9d9d9;overflow:hidden;padding:0px 3px 0px 3px;vertical-align:middle;background-color:#ffffff;font-family:Roboto;font-size:9pt;font-weight:bold;wrap-strategy:3;white-space:clip;color:#434343;&quot;&gt;Transport info(Transport)&lt;/td&gt;&lt;/tr&gt;&lt;tr style=&quot;height:20px;&quot;&gt;&lt;td style=&quot;border-right:1px solid #d9d9d9;border-bottom:1px solid #d9d9d9;border-left:1px solid #bfbfbf;overflow:hidden;padding:0px 3px 0px 3px;vertical-align:middle;background-color:#f6f8f9;font-family:Roboto;font-size:9pt;font-weight:bold;wrap-strategy:3;white-space:clip;color:#434343;&quot;&gt;Rental Amount&lt;/td&gt;&lt;td style=&quot;border-right:1px solid #d9d9d9;border-bottom:1px solid #d9d9d9;overflow:hidden;padding:0px 3px 0px 3px;vertical-align:middle;background-color:#f6f8f9;font-family:Roboto;font-weight:normal;wrap-strategy:3;white-space:clip;color:#434343;&quot;&gt;Yes&lt;/td&gt;&lt;td style=&quot;border-right:1px solid #d9d9d9;border-bottom:1px solid #d9d9d9;overflow:hidden;padding:0px 3px 0px 3px;vertical-align:middle;background-color:#f6f8f9;font-family:Roboto;font-weight:normal;wrap-strategy:3;white-space:clip;color:#434343;&quot;&gt;No &lt;/td&gt;&lt;td style=&quot;border-right:1px solid #d9d9d9;border-bottom:1px solid #d9d9d9;overflow:hidden;padding:0px 3px 0px 3px;vertical-align:middle;background-color:#f6f8f9;font-family:Roboto;font-weight:normal;wrap-strategy:3;white-space:clip;color:#434343;&quot;&gt;No&lt;/td&gt;&lt;td style=&quot;border-right:1px solid #d9d9d9;border-bottom:1px solid #d9d9d9;overflow:hidden;padding:0px 3px 0px 3px;vertical-align:middle;background-color:#f6f8f9;font-family:Roboto;font-weight:normal;wrap-strategy:3;white-space:clip;color:#434343;&quot;&gt;Yes&lt;/td&gt;&lt;td style=&quot;border-right:1px solid #d9d9d9;border-bottom:1px solid #d9d9d9;overflow:hidden;padding:0px 3px 0px 3px;vertical-align:middle;background-color:#f6f8f9;font-family:Roboto;font-weight:normal;wrap-strategy:3;white-space:clip;color:#434343;&quot;&gt;No&lt;/td&gt;&lt;td style=&quot;border-right:1px solid #bfbfbf;border-bottom:1px solid #d9d9d9;overflow:hidden;padding:0px 3px 0px 3px;vertical-align:middle;background-color:#f6f8f9;font-family:Roboto;font-weight:normal;wrap-strategy:3;white-space:clip;color:#434343;&quot;&gt;No&lt;/td&gt;&lt;/tr&gt;&lt;tr style=&quot;height:20px;&quot;&gt;&lt;td style=&quot;border-right:1px solid #d9d9d9;border-bottom:1px solid #d9d9d9;border-left:1px solid #bfbfbf;overflow:hidden;padding:0px 3px 0px 3px;vertical-align:middle;background-color:#ffffff;font-family:Roboto;font-size:9pt;font-weight:bold;wrap-strategy:3;white-space:clip;color:#434343;&quot;&gt;House Value&lt;/td&gt;&lt;td style=&quot;border-right:1px solid #d9d9d9;border-bottom:1px solid #d9d9d9;overflow:hidden;padding:0px 3px 0px 3px;vertical-align:middle;background-color:#ffffff;font-family:Roboto;font-weight:normal;wrap-strategy:3;white-space:clip;color:#434343;&quot;&gt;Yes&lt;/td&gt;&lt;td style=&quot;border-right:1px solid #d9d9d9;border-bottom:1px solid #d9d9d9;overflow:hidden;padding:0px 3px 0px 3px;vertical-align:middle;background-color:#ffffff;font-family:Roboto;font-weight:normal;wrap-strategy:3;white-space:clip;color:#434343;&quot;&gt;No &lt;/td&gt;&lt;td style=&quot;border-right:1px solid #d9d9d9;border-bottom:1px solid #d9d9d9;overflow:hidden;padding:0px 3px 0px 3px;vertical-align:middle;background-color:#ffffff;font-family:Roboto;font-weight:normal;wrap-strategy:3;white-space:clip;color:#434343;&quot;&gt;No&lt;/td&gt;&lt;td style=&quot;border-right:1px solid #d9d9d9;border-bottom:1px solid #d9d9d9;overflow:hidden;padding:0px 3px 0px 3px;vertical-align:middle;background-color:#ffffff;font-family:Roboto;font-weight:normal;wrap-strategy:3;white-space:clip;color:#434343;&quot;&gt;No&lt;/td&gt;&lt;td style=&quot;border-right:1px solid #d9d9d9;border-bottom:1px solid #d9d9d9;overflow:hidden;padding:0px 3px 0px 3px;vertical-align:middle;background-color:#ffffff;font-family:Roboto;font-weight:normal;wrap-strategy:3;white-space:clip;color:#434343;&quot;&gt;No&lt;/td&gt;&lt;td style=&quot;border-right:1px solid #bfbfbf;border-bottom:1px solid #d9d9d9;overflow:hidden;padding:0px 3px 0px 3px;vertical-align:middle;background-color:#ffffff;font-family:Roboto;font-weight:normal;wrap-strategy:3;white-space:clip;color:#434343;&quot;&gt;No&lt;/td&gt;&lt;/tr&gt;&lt;tr style=&quot;height:20px;&quot;&gt;&lt;td style=&quot;border-right:1px solid #d9d9d9;border-bottom:1px solid #d9d9d9;border-left:1px solid #bfbfbf;overflow:hidden;padding:0px 3px 0px 3px;vertical-align:middle;background-color:#f6f8f9;font-family:Roboto;font-size:9pt;font-weight:bold;wrap-strategy:3;white-space:clip;color:#434343;&quot;&gt;Recorded incidents&lt;/td&gt;&lt;td style=&quot;border-right:1px solid #d9d9d9;border-bottom:1px solid #d9d9d9;overflow:hidden;padding:0px 3px 0px 3px;vertical-align:middle;background-color:#f6f8f9;font-family:Roboto;font-weight:normal;wrap-strategy:3;white-space:clip;color:#434343;&quot;&gt;Yes&lt;/td&gt;&lt;td style=&quot;border-right:1px solid #d9d9d9;border-bottom:1px solid #d9d9d9;overflow:hidden;padding:0px 3px 0px 3px;vertical-align:middle;background-color:#f6f8f9;font-family:Roboto;font-weight:normal;wrap-strategy:3;white-space:clip;color:#434343;&quot;&gt;Yes&lt;/td&gt;&lt;td style=&quot;border-right:1px solid #d9d9d9;border-bottom:1px solid #d9d9d9;overflow:hidden;padding:0px 3px 0px 3px;vertical-align:middle;background-color:#f6f8f9;font-family:Roboto;font-weight:normal;wrap-strategy:3;white-space:clip;color:#434343;&quot;&gt;No&lt;/td&gt;&lt;td style=&quot;border-right:1px solid #d9d9d9;border-bottom:1px solid #d9d9d9;overflow:hidden;padding:0px 3px 0px 3px;vertical-align:middle;background-color:#f6f8f9;font-family:Roboto;font-weight:normal;wrap-strategy:3;white-space:clip;color:#434343;&quot;&gt;No&lt;/td&gt;&lt;td style=&quot;border-right:1px solid #d9d9d9;border-bottom:1px solid #d9d9d9;overflow:hidden;padding:0px 3px 0px 3px;vertical-align:middle;background-color:#f6f8f9;font-family:Roboto;font-weight:normal;wrap-strategy:3;white-space:clip;color:#434343;&quot;&gt;No&lt;/td&gt;&lt;td style=&quot;border-right:1px solid #bfbfbf;border-bottom:1px solid #d9d9d9;overflow:hidden;padding:0px 3px 0px 3px;vertical-align:middle;background-color:#f6f8f9;font-family:Roboto;font-weight:normal;wrap-strategy:3;white-space:clip;color:#434343;&quot;&gt;No&lt;/td&gt;&lt;/tr&gt;&lt;/tbody&gt;&lt;/table&gt;&#xa;&#xa;" link="&#xa;&lt;table data-sheets-named-table=&quot;{&amp;quot;1&amp;quot;:{&amp;quot;1&amp;quot;:{&amp;quot;1&amp;quot;:{&amp;quot;4&amp;quot;:{&amp;quot;1&amp;quot;:2,&amp;quot;2&amp;quot;:16777215}},&amp;quot;2&amp;quot;:{&amp;quot;4&amp;quot;:{&amp;quot;1&amp;quot;:2,&amp;quot;2&amp;quot;:16777215}},&amp;quot;3&amp;quot;:1,&amp;quot;4&amp;quot;:{&amp;quot;4&amp;quot;:{&amp;quot;1&amp;quot;:2,&amp;quot;2&amp;quot;:16185593}},&amp;quot;5&amp;quot;:1}},&amp;quot;2&amp;quot;:&amp;quot;Table1&amp;quot;,&amp;quot;3&amp;quot;:[{&amp;quot;1&amp;quot;:0,&amp;quot;2&amp;quot;:1,&amp;quot;3&amp;quot;:{&amp;quot;2&amp;quot;:2},&amp;quot;4&amp;quot;:7}],&amp;quot;5&amp;quot;:{&amp;quot;1&amp;quot;:62,&amp;quot;3&amp;quot;:1,&amp;quot;4&amp;quot;:1,&amp;quot;5&amp;quot;:1,&amp;quot;6&amp;quot;:1,&amp;quot;7&amp;quot;:1}}&quot; data-sheets-named-table-range=&quot;G9:M28&quot; data-sheets-original-selection=&quot;G8:M13&quot; data-sheets-baot=&quot;1&quot; data-sheets-root=&quot;1&quot; style=&quot;table-layout:fixed;font-size:11pt;font-family:Calibri;width:0px;border-collapse:collapse;border:none&quot; border=&quot;1&quot; dir=&quot;ltr&quot; cellpadding=&quot;0&quot; cellspacing=&quot;0&quot; xmlns=&quot;http://www.w3.org/1999/xhtml&quot;&gt;&lt;colgroup&gt;&lt;col width=&quot;169&quot;&gt;&lt;col width=&quot;464&quot;&gt;&lt;col width=&quot;119&quot;&gt;&lt;col width=&quot;198&quot;&gt;&lt;col width=&quot;121&quot;&gt;&lt;col width=&quot;119&quot;&gt;&lt;col width=&quot;159&quot;&gt;&lt;/colgroup&gt;&lt;tbody&gt;&lt;tr style=&quot;height:20px;&quot;&gt;&lt;td style=&quot;border-bottom:1px solid #bfbfbf;overflow:hidden;padding:0px 3px 0px 3px;vertical-align:bottom;&quot;&gt;&lt;/td&gt;&lt;td style=&quot;border-bottom:1px solid #bfbfbf;overflow:hidden;padding:0px 3px 0px 3px;vertical-align:bottom;font-family:Arial;font-size:12pt;font-weight:bold;&quot;&gt;Descriptive Info&lt;/td&gt;&lt;td style=&quot;border-bottom:1px solid #bfbfbf;overflow:hidden;padding:0px 3px 0px 3px;vertical-align:bottom;&quot;&gt;&lt;/td&gt;&lt;td style=&quot;border-bottom:1px solid #bfbfbf;overflow:hidden;padding:0px 3px 0px 3px;vertical-align:bottom;&quot;&gt;&lt;/td&gt;&lt;td style=&quot;border-bottom:1px solid #bfbfbf;overflow:hidden;padding:0px 3px 0px 3px;vertical-align:bottom;&quot;&gt;&lt;/td&gt;&lt;td style=&quot;border-bottom:1px solid #bfbfbf;overflow:hidden;padding:0px 3px 0px 3px;vertical-align:bottom;&quot;&gt;&lt;/td&gt;&lt;td style=&quot;border-bottom:1px solid #bfbfbf;overflow:hidden;padding:0px 3px 0px 3px;vertical-align:bottom;&quot;&gt;&lt;/td&gt;&lt;/tr&gt;&lt;tr style=&quot;height:20px;&quot;&gt;&lt;td style=&quot;border-right:1px solid #bfbfbf;border-bottom:1px solid #bfbfbf;border-left:1px solid #bfbfbf;overflow:hidden;padding:0px 3px 0px 3px;vertical-align:middle;background-color:#ffffff;font-family:Roboto;font-weight:normal;wrap-strategy:3;white-space:clip;color:#ffffff;&quot;&gt;Column 1&lt;/td&gt;&lt;td style=&quot;border-right:1px solid #bfbfbf;border-bottom:1px solid #bfbfbf;overflow:hidden;padding:0px 3px 0px 3px;vertical-align:middle;background-color:#ffffff;font-family:Roboto;font-size:12pt;font-weight:bold;wrap-strategy:3;white-space:clip;color:#ffffff;&quot;&gt;De&lt;/td&gt;&lt;td style=&quot;border-right:1px solid #bfbfbf;border-bottom:1px solid #bfbfbf;overflow:hidden;padding:0px 3px 0px 3px;vertical-align:middle;background-color:#ffffff;font-family:Roboto;font-weight:normal;wrap-strategy:3;white-space:clip;color:#ffffff;&quot;&gt;Column 3&lt;/td&gt;&lt;td style=&quot;border-right:1px solid #bfbfbf;border-bottom:1px solid #bfbfbf;overflow:hidden;padding:0px 3px 0px 3px;vertical-align:middle;background-color:#ffffff;font-family:Roboto;font-weight:normal;wrap-strategy:3;white-space:clip;color:#ffffff;&quot;&gt;Column 4&lt;/td&gt;&lt;td style=&quot;border-right:1px solid #bfbfbf;border-bottom:1px solid #bfbfbf;overflow:hidden;padding:0px 3px 0px 3px;vertical-align:middle;background-color:#ffffff;font-family:Roboto;font-weight:normal;wrap-strategy:3;white-space:clip;color:#ffffff;&quot;&gt;Column 5&lt;/td&gt;&lt;td style=&quot;border-right:1px solid #bfbfbf;border-bottom:1px solid #bfbfbf;overflow:hidden;padding:0px 3px 0px 3px;vertical-align:middle;background-color:#ffffff;font-family:Roboto;font-weight:normal;wrap-strategy:3;white-space:clip;color:#ffffff;&quot;&gt;Column 6&lt;/td&gt;&lt;td style=&quot;border-right:1px solid #bfbfbf;border-bottom:1px solid #bfbfbf;overflow:hidden;padding:0px 3px 0px 3px;vertical-align:middle;background-color:#ffffff;font-family:Roboto;font-weight:normal;wrap-strategy:3;white-space:clip;color:#ffffff;&quot;&gt;Column 7&lt;/td&gt;&lt;/tr&gt;&lt;tr style=&quot;height:20px;&quot;&gt;&lt;td style=&quot;border-right:1px solid #d9d9d9;border-bottom:1px solid #d9d9d9;border-left:1px solid #bfbfbf;overflow:hidden;padding:0px 3px 0px 3px;vertical-align:middle;background-color:#ffffff;font-family:Arial;font-size:12pt;font-weight:bold;wrap-strategy:3;white-space:clip;color:#434343;&quot;&gt;Subject area/Entity&lt;/td&gt;&lt;td style=&quot;border-right:1px solid #d9d9d9;border-bottom:1px solid #d9d9d9;overflow:hidden;padding:0px 3px 0px 3px;vertical-align:middle;background-color:#ffffff;font-family:Roboto;font-size:9pt;font-weight:bold;wrap-strategy:3;white-space:clip;color:#434343;&quot;&gt;Location (suburb, crime, transport, HouseValue, RentalAmount, School lists) &lt;/td&gt;&lt;td style=&quot;border-right:1px solid #d9d9d9;border-bottom:1px solid #d9d9d9;overflow:hidden;padding:0px 3px 0px 3px;vertical-align:middle;background-color:#ffffff;font-family:Roboto;font-size:9pt;font-weight:bold;wrap-strategy:3;white-space:clip;color:#434343;&quot;&gt;Offence (Crime List) &lt;/td&gt;&lt;td style=&quot;border-right:1px solid #d9d9d9;border-bottom:1px solid #d9d9d9;overflow:hidden;padding:0px 3px 0px 3px;vertical-align:middle;background-color:#ffffff;font-family:Roboto;font-size:9pt;font-weight:bold;wrap-strategy:3;white-space:clip;color:#434343;&quot;&gt;Lat/Longitude (Suburb, Transport) &lt;/td&gt;&lt;td style=&quot;border-right:1px solid #d9d9d9;border-bottom:1px solid #d9d9d9;overflow:hidden;padding:0px 3px 0px 3px;vertical-align:middle;background-color:#ffffff;font-family:Roboto;font-size:9pt;font-weight:bold;wrap-strategy:3;white-space:clip;color:#434343;&quot;&gt;Rental Type (Rental) &lt;/td&gt;&lt;td style=&quot;border-right:1px solid #d9d9d9;border-bottom:1px solid #d9d9d9;overflow:hidden;padding:0px 3px 0px 3px;vertical-align:middle;background-color:#ffffff;font-family:Roboto;font-size:9pt;font-weight:bold;wrap-strategy:3;white-space:clip;color:#434343;&quot;&gt;School info(School)&lt;/td&gt;&lt;td style=&quot;border-right:1px solid #bfbfbf;border-bottom:1px solid #d9d9d9;overflow:hidden;padding:0px 3px 0px 3px;vertical-align:middle;background-color:#ffffff;font-family:Roboto;font-size:9pt;font-weight:bold;wrap-strategy:3;white-space:clip;color:#434343;&quot;&gt;Transport info(Transport)&lt;/td&gt;&lt;/tr&gt;&lt;tr style=&quot;height:20px;&quot;&gt;&lt;td style=&quot;border-right:1px solid #d9d9d9;border-bottom:1px solid #d9d9d9;border-left:1px solid #bfbfbf;overflow:hidden;padding:0px 3px 0px 3px;vertical-align:middle;background-color:#f6f8f9;font-family:Roboto;font-size:9pt;font-weight:bold;wrap-strategy:3;white-space:clip;color:#434343;&quot;&gt;Rental Amount&lt;/td&gt;&lt;td style=&quot;border-right:1px solid #d9d9d9;border-bottom:1px solid #d9d9d9;overflow:hidden;padding:0px 3px 0px 3px;vertical-align:middle;background-color:#f6f8f9;font-family:Roboto;font-weight:normal;wrap-strategy:3;white-space:clip;color:#434343;&quot;&gt;Yes&lt;/td&gt;&lt;td style=&quot;border-right:1px solid #d9d9d9;border-bottom:1px solid #d9d9d9;overflow:hidden;padding:0px 3px 0px 3px;vertical-align:middle;background-color:#f6f8f9;font-family:Roboto;font-weight:normal;wrap-strategy:3;white-space:clip;color:#434343;&quot;&gt;No &lt;/td&gt;&lt;td style=&quot;border-right:1px solid #d9d9d9;border-bottom:1px solid #d9d9d9;overflow:hidden;padding:0px 3px 0px 3px;vertical-align:middle;background-color:#f6f8f9;font-family:Roboto;font-weight:normal;wrap-strategy:3;white-space:clip;color:#434343;&quot;&gt;No&lt;/td&gt;&lt;td style=&quot;border-right:1px solid #d9d9d9;border-bottom:1px solid #d9d9d9;overflow:hidden;padding:0px 3px 0px 3px;vertical-align:middle;background-color:#f6f8f9;font-family:Roboto;font-weight:normal;wrap-strategy:3;white-space:clip;color:#434343;&quot;&gt;Yes&lt;/td&gt;&lt;td style=&quot;border-right:1px solid #d9d9d9;border-bottom:1px solid #d9d9d9;overflow:hidden;padding:0px 3px 0px 3px;vertical-align:middle;background-color:#f6f8f9;font-family:Roboto;font-weight:normal;wrap-strategy:3;white-space:clip;color:#434343;&quot;&gt;No&lt;/td&gt;&lt;td style=&quot;border-right:1px solid #bfbfbf;border-bottom:1px solid #d9d9d9;overflow:hidden;padding:0px 3px 0px 3px;vertical-align:middle;background-color:#f6f8f9;font-family:Roboto;font-weight:normal;wrap-strategy:3;white-space:clip;color:#434343;&quot;&gt;No&lt;/td&gt;&lt;/tr&gt;&lt;tr style=&quot;height:20px;&quot;&gt;&lt;td style=&quot;border-right:1px solid #d9d9d9;border-bottom:1px solid #d9d9d9;border-left:1px solid #bfbfbf;overflow:hidden;padding:0px 3px 0px 3px;vertical-align:middle;background-color:#ffffff;font-family:Roboto;font-size:9pt;font-weight:bold;wrap-strategy:3;white-space:clip;color:#434343;&quot;&gt;House Value&lt;/td&gt;&lt;td style=&quot;border-right:1px solid #d9d9d9;border-bottom:1px solid #d9d9d9;overflow:hidden;padding:0px 3px 0px 3px;vertical-align:middle;background-color:#ffffff;font-family:Roboto;font-weight:normal;wrap-strategy:3;white-space:clip;color:#434343;&quot;&gt;Yes&lt;/td&gt;&lt;td style=&quot;border-right:1px solid #d9d9d9;border-bottom:1px solid #d9d9d9;overflow:hidden;padding:0px 3px 0px 3px;vertical-align:middle;background-color:#ffffff;font-family:Roboto;font-weight:normal;wrap-strategy:3;white-space:clip;color:#434343;&quot;&gt;No &lt;/td&gt;&lt;td style=&quot;border-right:1px solid #d9d9d9;border-bottom:1px solid #d9d9d9;overflow:hidden;padding:0px 3px 0px 3px;vertical-align:middle;background-color:#ffffff;font-family:Roboto;font-weight:normal;wrap-strategy:3;white-space:clip;color:#434343;&quot;&gt;No&lt;/td&gt;&lt;td style=&quot;border-right:1px solid #d9d9d9;border-bottom:1px solid #d9d9d9;overflow:hidden;padding:0px 3px 0px 3px;vertical-align:middle;background-color:#ffffff;font-family:Roboto;font-weight:normal;wrap-strategy:3;white-space:clip;color:#434343;&quot;&gt;No&lt;/td&gt;&lt;td style=&quot;border-right:1px solid #d9d9d9;border-bottom:1px solid #d9d9d9;overflow:hidden;padding:0px 3px 0px 3px;vertical-align:middle;background-color:#ffffff;font-family:Roboto;font-weight:normal;wrap-strategy:3;white-space:clip;color:#434343;&quot;&gt;No&lt;/td&gt;&lt;td style=&quot;border-right:1px solid #bfbfbf;border-bottom:1px solid #d9d9d9;overflow:hidden;padding:0px 3px 0px 3px;vertical-align:middle;background-color:#ffffff;font-family:Roboto;font-weight:normal;wrap-strategy:3;white-space:clip;color:#434343;&quot;&gt;No&lt;/td&gt;&lt;/tr&gt;&lt;tr style=&quot;height:20px;&quot;&gt;&lt;td style=&quot;border-right:1px solid #d9d9d9;border-bottom:1px solid #d9d9d9;border-left:1px solid #bfbfbf;overflow:hidden;padding:0px 3px 0px 3px;vertical-align:middle;background-color:#f6f8f9;font-family:Roboto;font-size:9pt;font-weight:bold;wrap-strategy:3;white-space:clip;color:#434343;&quot;&gt;Recorded incidents&lt;/td&gt;&lt;td style=&quot;border-right:1px solid #d9d9d9;border-bottom:1px solid #d9d9d9;overflow:hidden;padding:0px 3px 0px 3px;vertical-align:middle;background-color:#f6f8f9;font-family:Roboto;font-weight:normal;wrap-strategy:3;white-space:clip;color:#434343;&quot;&gt;Yes&lt;/td&gt;&lt;td style=&quot;border-right:1px solid #d9d9d9;border-bottom:1px solid #d9d9d9;overflow:hidden;padding:0px 3px 0px 3px;vertical-align:middle;background-color:#f6f8f9;font-family:Roboto;font-weight:normal;wrap-strategy:3;white-space:clip;color:#434343;&quot;&gt;Yes&lt;/td&gt;&lt;td style=&quot;border-right:1px solid #d9d9d9;border-bottom:1px solid #d9d9d9;overflow:hidden;padding:0px 3px 0px 3px;vertical-align:middle;background-color:#f6f8f9;font-family:Roboto;font-weight:normal;wrap-strategy:3;white-space:clip;color:#434343;&quot;&gt;No&lt;/td&gt;&lt;td style=&quot;border-right:1px solid #d9d9d9;border-bottom:1px solid #d9d9d9;overflow:hidden;padding:0px 3px 0px 3px;vertical-align:middle;background-color:#f6f8f9;font-family:Roboto;font-weight:normal;wrap-strategy:3;white-space:clip;color:#434343;&quot;&gt;No&lt;/td&gt;&lt;td style=&quot;border-right:1px solid #d9d9d9;border-bottom:1px solid #d9d9d9;overflow:hidden;padding:0px 3px 0px 3px;vertical-align:middle;background-color:#f6f8f9;font-family:Roboto;font-weight:normal;wrap-strategy:3;white-space:clip;color:#434343;&quot;&gt;No&lt;/td&gt;&lt;td style=&quot;border-right:1px solid #bfbfbf;border-bottom:1px solid #d9d9d9;overflow:hidden;padding:0px 3px 0px 3px;vertical-align:middle;background-color:#f6f8f9;font-family:Roboto;font-weight:normal;wrap-strategy:3;white-space:clip;color:#434343;&quot;&gt;No&lt;/td&gt;&lt;/tr&gt;&lt;/tbody&gt;&lt;/table&gt;&#xa;&#xa;" id="Zu2pmkmOJ84C_yeY3-3D-12">
          <mxCell style="rounded=0;whiteSpace=wrap;html=1;" vertex="1" parent="1">
            <mxGeometry x="-665" y="1040" width="1350" height="130" as="geometry" />
          </mxCell>
        </UserObject>
        <mxCell id="Zu2pmkmOJ84C_yeY3-3D-31" style="edgeStyle=orthogonalEdgeStyle;rounded=0;orthogonalLoop=1;jettySize=auto;html=1;entryX=0.342;entryY=0.025;entryDx=0;entryDy=0;entryPerimeter=0;" edge="1" parent="1" source="Zu2pmkmOJ84C_yeY3-3D-3" target="Zu2pmkmOJ84C_yeY3-3D-11">
          <mxGeometry relative="1" as="geometry" />
        </mxCell>
        <mxCell id="Zu2pmkmOJ84C_yeY3-3D-33" style="edgeStyle=orthogonalEdgeStyle;rounded=0;orthogonalLoop=1;jettySize=auto;html=1;entryX=0.342;entryY=1;entryDx=0;entryDy=0;entryPerimeter=0;" edge="1" parent="1" source="Zu2pmkmOJ84C_yeY3-3D-4" target="Zu2pmkmOJ84C_yeY3-3D-11">
          <mxGeometry relative="1" as="geometry" />
        </mxCell>
        <mxCell id="Zu2pmkmOJ84C_yeY3-3D-34" style="edgeStyle=orthogonalEdgeStyle;rounded=0;orthogonalLoop=1;jettySize=auto;html=1;entryX=0.45;entryY=1.025;entryDx=0;entryDy=0;entryPerimeter=0;" edge="1" parent="1" source="Zu2pmkmOJ84C_yeY3-3D-6" target="Zu2pmkmOJ84C_yeY3-3D-9">
          <mxGeometry relative="1" as="geometry" />
        </mxCell>
        <mxCell id="Zu2pmkmOJ84C_yeY3-3D-36" style="edgeStyle=orthogonalEdgeStyle;rounded=0;orthogonalLoop=1;jettySize=auto;html=1;entryX=0.378;entryY=0.018;entryDx=0;entryDy=0;entryPerimeter=0;" edge="1" parent="1" source="Zu2pmkmOJ84C_yeY3-3D-8" target="Zu2pmkmOJ84C_yeY3-3D-3">
          <mxGeometry relative="1" as="geometry" />
        </mxCell>
      </root>
    </mxGraphModel>
  </diagram>
</mxfile>
